<svg xmlns="http://www.w3.org/2000/svg" width="512" height="512" viewBox="0 0 512 512" version="1.1">
	<path d="M 0 207.500 L 0 415 34.333 415 C 53.217 415, 68.941 414.725, 69.277 414.389 C 69.613 414.053, 66.375 409.216, 62.080 403.639 C 28.119 359.535, 10.289 304.652, 12.330 250.500 C 14.751 186.290, 41.276 127.184, 85.863 86.648 C 145.812 32.144, 225.918 8.780, 302.491 23.464 C 346.583 31.919, 397.752 59.652, 431.111 93.174 C 466.460 128.696, 488.786 173.178, 496.522 223.500 C 498.728 237.846, 499.510 266.100, 498.099 280.500 C 493.995 322.411, 476.195 368.267, 449.901 404.669 C 446.655 409.162, 444 413.330, 444 413.932 C 444 414.708, 453.953 414.950, 478.250 414.763 L 512.500 414.500 512.752 207.250 L 513.005 0 256.502 0 L 0 0 0 207.500 M 0.491 208 C 0.491 322.125, 0.607 368.813, 0.750 311.750 C 0.893 254.688, 0.893 161.313, 0.750 104.250 C 0.607 47.188, 0.491 93.875, 0.491 208 M 240.842 26.050 C 207.305 29.034, 179.228 43.666, 170.897 62.499 C 167.698 69.731, 167.959 80.722, 171.528 89.130 C 175.549 98.604, 175.623 100.736, 172.198 108.618 C 170.553 112.403, 168.889 117.459, 168.499 119.854 C 167.826 123.982, 167.497 124.335, 162.145 126.679 C 141.313 135.803, 132.611 141.712, 124.856 152 C 116.388 163.235, 112.796 175.042, 114.937 184.610 C 116.493 191.561, 120.864 199.918, 126.569 206.847 L 131 212.230 131 318.115 C 131 381.151, 130.631 424, 130.089 424 C 128.664 424, 124.131 418.192, 121.493 412.987 C 116.835 403.794, 116.035 390.801, 119.492 380.500 L 120.163 378.500 118.501 380.500 C 115.539 384.063, 111.184 393.501, 109.467 400.080 C 108.217 404.869, 107.897 409.339, 108.207 417.676 C 108.600 428.227, 108.838 429.289, 112.473 436.643 C 119.324 450.505, 136.902 465.969, 157.500 476.255 C 173.572 484.280, 196.510 491.155, 219 494.685 C 235.312 497.246, 276.680 497.247, 293 494.687 C 339.432 487.402, 378.519 467.675, 394.131 443.646 C 400.861 433.287, 402.387 428.031, 402.447 415 C 402.491 405.444, 402.104 402.353, 400.157 396.717 C 398.117 390.809, 389.185 375.482, 388.299 376.368 C 388.123 376.544, 388.694 378.671, 389.569 381.094 C 392.153 388.253, 392.577 399.967, 390.525 407.545 C 388.660 414.437, 383.137 423.834, 378.505 428 L 375.725 430.500 376.319 322.673 L 376.914 214.847 382.863 208.487 C 386.145 204.979, 390.311 199.083, 392.156 195.335 C 395.199 189.154, 395.500 187.730, 395.500 179.521 C 395.500 171.517, 395.153 169.768, 392.418 164 C 388.462 155.660, 380.463 146.074, 372.651 140.316 C 366.182 135.546, 354.108 129.123, 347.715 127.049 C 343.410 125.653, 341.519 123.179, 340.554 117.679 C 340.185 115.578, 338.532 110.485, 336.881 106.363 L 333.880 98.867 336.637 90.684 C 343.625 69.940, 338.114 55.247, 318.401 42.062 C 304.799 32.965, 287.351 27.726, 265 26.030 C 257.575 25.466, 251.050 25.067, 250.500 25.142 C 249.950 25.217, 245.604 25.626, 240.842 26.050 M 240 33.036 C 218.804 35.259, 198.379 43.336, 186.556 54.170 C 178.972 61.120, 176 66.139, 176 72 C 176 81.365, 185.188 91.142, 201.381 99.008 C 233.217 114.473, 278.400 114.706, 309.520 99.567 C 316.689 96.080, 319.910 93.784, 324.322 89.019 C 329.088 83.871, 332.554 77.538, 331.384 76.118 C 331.211 75.908, 328.520 78.066, 325.403 80.914 C 313.742 91.572, 291.483 99.863, 268.663 102.048 C 227.863 105.955, 185 89.883, 185 70.679 C 185 65.506, 186.259 62.950, 191.136 58.216 C 199.474 50.123, 215.334 43.405, 233.130 40.430 C 246.448 38.203, 272.319 38.922, 285.147 41.876 C 294.368 44, 308.673 49.528, 314.785 53.330 C 316.828 54.601, 319.151 56.028, 319.947 56.501 C 320.751 56.979, 320.406 55.975, 319.171 54.240 C 316.290 50.195, 305.256 42.959, 297 39.702 C 282.675 34.051, 257.921 31.156, 240 33.036 M 236.516 53.592 C 224.087 56.375, 207.943 65.001, 205.051 70.404 C 203.749 72.838, 203.849 73.233, 206.462 75.961 C 210.343 80.011, 221.034 85.443, 230.545 88.197 C 237.460 90.199, 240.723 90.500, 255.500 90.500 C 270.295 90.500, 273.536 90.200, 280.487 88.188 C 294.054 84.261, 307 76.894, 307 73.102 C 307 72.499, 305.418 70.255, 303.484 68.114 C 299.172 63.342, 288.085 57.727, 277.442 54.927 C 266.653 52.088, 246.210 51.422, 236.516 53.592 M 322.515 106.976 C 321.487 108.640, 308.944 115.268, 302.056 117.787 C 281.815 125.189, 253.446 127.967, 233.003 124.549 C 216.886 121.854, 200.577 115.661, 190.115 108.263 L 187.730 106.577 189.469 109.940 C 201.195 132.615, 251.405 143.725, 290.888 132.381 C 310.909 126.629, 322.027 118.786, 324.391 108.750 C 325.014 106.104, 323.777 104.934, 322.515 106.976 M 328.263 124.479 C 322.817 132.886, 303.173 143.948, 285.700 148.446 C 253.678 156.690, 217.210 151.595, 192.988 135.492 C 189.040 132.867, 184.502 128.915, 182.905 126.710 C 179.134 121.505, 178.939 124.479, 182.572 131.770 C 189.293 145.256, 209.072 156.066, 235.364 160.623 C 242.187 161.805, 248.677 162.088, 261 161.737 C 280.610 161.180, 291.964 158.649, 306.429 151.610 C 317.209 146.364, 324.199 140.514, 327.522 133.956 C 329.648 129.760, 331.925 120.978, 330.878 121.012 C 330.670 121.019, 329.493 122.579, 328.263 124.479 M 341.556 153.677 C 340.353 158.546, 334.880 166.027, 328.848 171.047 C 312.138 184.953, 289.348 192.659, 261.829 193.707 C 234.536 194.748, 212.864 190.017, 193.732 178.843 C 185.394 173.974, 173.167 162.627, 169.296 156.167 L 166.500 151.500 166.190 156.368 C 165.767 163.026, 169.542 170.552, 176.312 176.548 C 182.806 182.299, 202.440 192.032, 214.427 195.443 C 248.317 205.085, 288.715 201.572, 319.500 186.305 C 331.030 180.587, 338.389 175.017, 342.156 169.156 C 344.782 165.069, 345.100 163.795, 344.759 158.735 C 344.305 152.005, 342.625 149.351, 341.556 153.677 M 134 186.322 C 134 192.158, 137.371 198.536, 143.936 205.122 C 149.325 210.528, 152.648 212.774, 162.019 217.344 C 176.346 224.331, 189.214 228.549, 203.849 231.056 C 214.689 232.913, 221.354 233.502, 218 232.308 C 208.157 228.803, 188.895 220.905, 182.898 217.916 C 171.402 212.185, 155.057 200.854, 145.454 191.958 C 136.467 183.631, 134 182.418, 134 186.322 M 322.500 191.699 C 312.141 197.028, 303.946 200.232, 290 204.406 C 278.328 207.898, 273.773 210.106, 275.230 211.564 C 276.807 213.140, 284.033 213.837, 290.034 212.990 C 309.980 210.176, 333 198.127, 333 190.501 C 333 187.092, 331.016 187.319, 322.500 191.699 M 364.500 194.339 C 362.300 195.612, 356.742 199.225, 352.150 202.368 C 342.387 209.051, 326.665 217.109, 310.137 223.903 C 303.675 226.560, 297.063 229.450, 295.444 230.327 L 292.500 231.920 296.574 231.960 C 303.572 232.029, 319.063 228.980, 329.856 225.410 C 350.939 218.436, 365.628 208.617, 370.100 198.506 C 373.147 191.619, 371.421 190.334, 364.500 194.339 M 146 330.301 L 146 439.602 153.380 443.801 C 157.439 446.110, 161.264 448, 161.880 448 C 163.144 448, 163.436 239.607, 162.183 232.544 C 161.549 228.973, 160.849 228.224, 154.990 224.848 C 151.421 222.791, 147.938 221.084, 147.250 221.054 C 146.257 221.011, 146 243.498, 146 330.301 M 354.500 225.662 C 351.750 227.075, 348.712 228.924, 347.750 229.771 C 346.103 231.219, 346 237.743, 346 340.096 C 346 403.637, 346.375 449.114, 346.902 449.439 C 348.056 450.153, 359.101 444.428, 360.750 442.260 C 362.583 439.851, 362.583 222.978, 360.750 223.047 C 360.063 223.072, 357.250 224.249, 354.500 225.662 M 177.501 236.146 C 177.217 236.891, 177.101 286.097, 177.242 345.492 L 177.500 453.485 184 455.815 C 204.464 463.152, 231.257 467.325, 257.500 467.264 C 281.869 467.208, 302.297 464.221, 324.750 457.431 L 333 454.936 333 344.861 C 333 240.437, 332.910 234.821, 331.250 235.462 C 325.634 237.631, 307.930 242.030, 299.417 243.371 C 259.579 249.647, 207.645 246.162, 179.381 235.316 C 178.631 235.028, 177.785 235.402, 177.501 236.146 M 308.500 252.624 C 300.656 255.531, 290.344 258.003, 280.015 259.452 C 272.454 260.512, 269.178 261.404, 268.265 262.652 C 265.518 266.409, 267.672 275.629, 271.523 276.595 C 276.650 277.882, 310.106 269.752, 313.452 266.406 C 315.036 264.821, 315.539 257.613, 314.370 253.250 C 313.675 250.657, 313.775 250.668, 308.500 252.624 M 198.677 252.750 C 198.434 253.162, 198.468 257.004, 198.752 261.286 C 199.143 267.190, 199.674 269.290, 200.947 269.972 C 204.084 271.651, 222.455 275.876, 233.795 277.526 C 247.654 279.544, 248 279.368, 248 270.312 C 248 261.684, 246.995 260, 241.843 260 C 235.116 260, 217.454 257.067, 208.424 254.450 C 198.839 251.672, 199.267 251.747, 198.677 252.750 M 309.998 282.928 C 306.903 284.770, 290.131 288.971, 280 290.442 C 269.078 292.028, 266.994 293.151, 267.006 297.441 C 267.016 301.263, 269.028 306.797, 270.631 307.412 C 273.893 308.664, 302.343 302.678, 310.795 298.961 L 315.089 297.073 314.795 289.797 C 314.490 282.270, 313.496 280.846, 309.998 282.928 M 199 291.051 L 199 299.102 202.703 300.649 C 207.954 302.843, 225.361 306.649, 236.634 308.068 C 247.943 309.491, 247.962 309.478, 247.985 300.321 C 248.003 292.805, 246.591 291.002, 240.679 290.996 C 234.354 290.990, 219.495 288.368, 209.705 285.531 C 204.901 284.139, 200.527 283, 199.985 283 C 199.420 283, 199 286.433, 199 291.051 M 199.295 321.719 C 199.715 327.275, 200.346 329.780, 201.546 330.657 C 205.355 333.442, 236.876 339.509, 244.016 338.831 L 247.500 338.500 247.793 331.865 C 248.158 323.611, 246.902 322, 240.105 322 C 233.358 322, 217.809 319.204, 209 316.407 C 198.158 312.964, 198.614 312.715, 199.295 321.719 M 309.829 314.504 C 308.490 315.843, 291.677 320.114, 282.216 321.519 C 276.370 322.387, 271.005 323.581, 270.294 324.171 C 269.533 324.803, 269 327.430, 269 330.551 C 269 336.380, 270.665 339.016, 274.321 338.977 C 278.251 338.934, 301.223 334.089, 307.681 331.940 L 314 329.837 314 321.918 C 314 314.907, 313.790 314, 312.167 314 C 311.158 314, 310.106 314.227, 309.829 314.504 M 197 356.429 L 197 364.858 202.654 366.502 C 213.269 369.587, 230.989 373.218, 232.537 372.624 C 233.792 372.143, 234.027 370.480, 233.791 363.766 L 233.500 355.500 228.500 354.652 C 225.750 354.186, 218.068 352.498, 211.429 350.902 C 204.790 349.306, 198.828 348, 198.179 348 C 197.367 348, 197 350.622, 197 356.429 M 275.174 357.314 C 270.654 362.126, 273.650 370, 280 370 C 284.254 370, 287 366.884, 287 362.057 C 287 359.115, 286.435 357.718, 284.777 356.557 C 281.595 354.327, 277.691 354.635, 275.174 357.314 M 197.358 379.510 C 196.572 381.557, 197.676 394.076, 198.736 395.136 C 200.039 396.439, 220.072 401.040, 227.250 401.684 L 234 402.290 234 394.767 C 234 389.930, 233.554 386.901, 232.750 386.282 C 232.063 385.752, 228.125 384.743, 224 384.039 C 217.368 382.907, 204.687 379.966, 199.745 378.413 C 198.663 378.073, 197.748 378.494, 197.358 379.510 M 275.455 388.455 C 270.730 393.179, 273.620 400, 280.345 400 C 284.615 400, 287 397.393, 287 392.728 C 287 386.319, 280.132 383.777, 275.455 388.455 M 196 422.465 C 196 437.037, 194.941 435.728, 209.373 438.989 C 217.559 440.839, 219.392 440.988, 220.102 439.860 C 221.028 438.388, 220.146 415.896, 219.122 414.886 C 218.367 414.140, 200.208 409.983, 197.750 409.993 C 196.177 409.999, 196 411.263, 196 422.465" stroke="none" fill="black" fill-rule="evenodd"/>
</svg>